<mxfile host="app.diagrams.net" modified="2023-08-15T07:47:14.582Z" agent="Mozilla/5.0 (X11; Linux x86_64; rv:109.0) Gecko/20100101 Firefox/117.0" version="21.6.2" etag="-dkGxxr5r91n2VNTx323" type="github">
  <diagram name="Page-1" id="VySCzbfjbonAypZuyHvZ">
    <mxGraphModel>
      <root>
        <mxCell id="0" />
        <mxCell id="1" parent="0" />
      </root>
    </mxGraphModel>
  </diagram>
</mxfile>
